<svg width="64" height="64" viewBox="0 0 64 64" fill="none" xmlns="http://www.w3.org/2000/svg">
  <!-- Background Circle with Gradient -->
  <defs>
    <linearGradient id="bgGradient" x1="0%" y1="0%" x2="100%" y2="100%">
      <stop offset="0%" style="stop-color:#00d4ff;stop-opacity:1" />
      <stop offset="100%" style="stop-color:#4ecdc4;stop-opacity:1" />
    </linearGradient>
    <linearGradient id="playGradient" x1="0%" y1="0%" x2="100%" y2="100%">
      <stop offset="0%" style="stop-color:#ffffff;stop-opacity:1" />
      <stop offset="100%" style="stop-color:#f8fafc;stop-opacity:0.9" />
    </linearGradient>
  </defs>
  
  <!-- Main Background Circle -->
  <circle cx="32" cy="32" r="30" fill="url(#bgGradient)" stroke="rgba(255,255,255,0.2)" stroke-width="2"/>
  
  <!-- Play Button Triangle -->
  <path d="M26 20 L26 44 L46 32 Z" fill="url(#playGradient)" stroke="rgba(0,0,0,0.1)" stroke-width="1"/>
  
  <!-- Scenic "S" Letter -->
  <path d="M18 16 Q18 12 22 12 L26 12 Q30 12 30 16 Q30 20 26 20 L24 20 Q20 20 20 24 Q20 28 24 28 L28 28 Q32 28 32 32 Q32 36 28 36 L22 36 Q18 36 18 32" 
        fill="none" 
        stroke="url(#playGradient)" 
        stroke-width="2.5" 
        stroke-linecap="round" 
        stroke-linejoin="round"/>
  
  <!-- Film Strip Elements -->
  <rect x="8" y="48" width="4" height="3" fill="rgba(255,255,255,0.6)" rx="1"/>
  <rect x="14" y="48" width="4" height="3" fill="rgba(255,255,255,0.6)" rx="1"/>
  <rect x="20" y="48" width="4" height="3" fill="rgba(255,255,255,0.6)" rx="1"/>
  
  <rect x="40" y="48" width="4" height="3" fill="rgba(255,255,255,0.6)" rx="1"/>
  <rect x="46" y="48" width="4" height="3" fill="rgba(255,255,255,0.6)" rx="1"/>
  <rect x="52" y="48" width="4" height="3" fill="rgba(255,255,255,0.6)" rx="1"/>
  
  <!-- Subtle Glow Effect -->
  <circle cx="32" cy="32" r="28" fill="none" stroke="rgba(255,255,255,0.1)" stroke-width="1"/>
</svg>